<?xml version="1.0" standalone="no"?><!-- Generator: Gravit.io --><svg xmlns="http://www.w3.org/2000/svg" xmlns:xlink="http://www.w3.org/1999/xlink" style="isolation:isolate" viewBox="0 0 2560 1440" width="2560" height="1440"><defs><clipPath id="_clipPath_WKArlZE89peHILp0MuCPFXaOIr5WMpPb"><rect width="2560" height="1440"/></clipPath></defs><g clip-path="url(#_clipPath_WKArlZE89peHILp0MuCPFXaOIr5WMpPb)"><rect width="2560" height="1440" style="fill:rgb(0,0,0)"/><clipPath id="_clipPath_RGI8Cpm6AjZ1y72f7F7ZFHiZjZ1x3l0Y"><rect x="0" y="0" width="2560" height="1440" transform="matrix(1,0,0,1,0,0)" fill="rgb(255,255,255)"/></clipPath><g clip-path="url(#_clipPath_RGI8Cpm6AjZ1y72f7F7ZFHiZjZ1x3l0Y)"><radialGradient id="_rgradient_0" fx="50%" fy="50%" cx="50%" cy="50%" r="50%" gradientTransform="matrix(0.9382471228228751 0.01887251995877587 0 1 0.03087643858856167 -0.009436259979387945)"><stop offset="0%" stop-opacity="0.73" style="stop-color:rgb(26,32,59)"/><stop offset="97.82608695652173%" stop-opacity="1" style="stop-color:rgb(0,0,0)"/></radialGradient><path d=" M -1102 228.5 C -1102 -298.855 -528.451 -727 178 -727 C 884.451 -727 1458 -298.855 1458 228.5 C 1458 755.855 884.451 1184 178 1184 C -528.451 1184 -1102 755.855 -1102 228.5 Z " fill="url(#_rgradient_0)"/><radialGradient id="_rgradient_1" fx="50%" fy="50%" cx="50%" cy="50%" r="50%" gradientTransform="matrix(0.9382471228228751 0.01887251995877587 0 1 0.03087643858856167 -0.009436259979387945)"><stop offset="2.1739130434782608%" stop-opacity="0.73" style="stop-color:rgb(51,26,59)"/><stop offset="96.08695652173913%" stop-opacity="0" style="stop-color:rgb(0,0,0)"/></radialGradient><path d=" M -406 -281.5 C -406 -808.855 167.549 -1237 874 -1237 C 1580.451 -1237 2154 -808.855 2154 -281.5 C 2154 245.855 1580.451 674 874 674 C 167.549 674 -406 245.855 -406 -281.5 Z " fill="url(#_rgradient_1)"/><radialGradient id="_rgradient_2" fx="50%" fy="50%" cx="50%" cy="50%" r="50%" gradientTransform="matrix(0.9382471228228751 0.01887251995877587 0 1 0.03087643858856167 -0.009436259979387945)"><stop offset="2.1739130434782608%" stop-opacity="0.65" style="stop-color:rgb(153,113,13)"/><stop offset="96.08695652173913%" stop-opacity="0" style="stop-color:rgb(0,0,0)"/></radialGradient><path d=" M 1161 -154 C 1161 -805.812 1942.236 -1335 2904.5 -1335 C 3866.764 -1335 4648 -805.812 4648 -154 C 4648 497.812 3866.764 1027 2904.5 1027 C 1942.236 1027 1161 497.812 1161 -154 Z " fill="url(#_rgradient_2)"/><radialGradient id="_rgradient_3" fx="50%" fy="50%" cx="50%" cy="50%" r="50%" gradientTransform="matrix(0.9382471228228751 0.01887251995877587 0 1 0.03087643858856167 -0.009436259979387945)"><stop offset="2.1739130434782608%" stop-opacity="0.73" style="stop-color:rgb(162,95,69)"/><stop offset="96.08695652173913%" stop-opacity="0" style="stop-color:rgb(0,0,0)"/></radialGradient><path d=" M 1539 1097.5 C 1539 570.145 2112.549 142 2819 142 C 3525.451 142 4099 570.145 4099 1097.5 C 4099 1624.855 3525.451 2053 2819 2053 C 2112.549 2053 1539 1624.855 1539 1097.5 Z " fill="url(#_rgradient_3)"/><radialGradient id="_rgradient_4" fx="50%" fy="50%" cx="50%" cy="50%" r="50%" gradientTransform="matrix(0.9382471228228751 0.01887251995877587 0 1 0.03087643858856167 -0.009436259979387945)"><stop offset="3.0434782608695654%" stop-opacity="0.73" style="stop-color:rgb(69,84,128)"/><stop offset="96.95652173913044%" stop-opacity="0" style="stop-color:rgb(0,0,0)"/></radialGradient><path d=" M -1542 1492.5 C -1542 833.238 -779.359 298 160 298 C 1099.359 298 1862 833.238 1862 1492.5 C 1862 2151.762 1099.359 2687 160 2687 C -779.359 2687 -1542 2151.762 -1542 1492.5 Z " fill="url(#_rgradient_4)"/><radialGradient id="_rgradient_5" fx="50%" fy="50%" cx="50%" cy="50%" r="50%" gradientTransform="matrix(0.9382471228228751 0.01887251995877587 0 1 0.03087643858856167 -0.009436259979387945)"><stop offset="3.0434782608695654%" stop-opacity="0.73" style="stop-color:rgb(128,69,69)"/><stop offset="96.95652173913044%" stop-opacity="0" style="stop-color:rgb(0,0,0)"/></radialGradient><path d=" M 1446 413.5 C 1446 -245.762 2208.641 -781 3148 -781 C 4087.359 -781 4850 -245.762 4850 413.5 C 4850 1072.762 4087.359 1608 3148 1608 C 2208.641 1608 1446 1072.762 1446 413.5 Z " fill="url(#_rgradient_5)"/><radialGradient id="_rgradient_6" fx="50%" fy="50%" cx="50%" cy="50%" r="50%" gradientTransform="matrix(0.9382471228228751 0.01887251995877587 0 1 0.03087643858856167 -0.009436259979387945)"><stop offset="3.0434782608695654%" stop-opacity="0.5" style="stop-color:rgb(128,69,75)"/><stop offset="96.95652173913044%" stop-opacity="0" style="stop-color:rgb(0,0,0)"/></radialGradient><path d=" M 350 1740.5 C 350 1081.238 1112.641 546 2052 546 C 2991.359 546 3754 1081.238 3754 1740.5 C 3754 2399.762 2991.359 2935 2052 2935 C 1112.641 2935 350 2399.762 350 1740.5 Z " fill="url(#_rgradient_6)"/></g></g></svg>